<svg width="1111" height="392" viewBox="0 0 1111 392" fill="none" xmlns="http://www.w3.org/2000/svg">
<path fill-rule="evenodd" clip-rule="evenodd" d="M0 6.10352e-05L185 6.10352e-05C284.433 6.10352e-05 366.573 74.0427 379.291 170H395V41.0001L776.728 41.0001C811.583 41.0001 845.78 50.495 875.646 68.4651C884.534 73.8129 893.841 78.4312 903.476 82.2745L934.059 94.4743C964.739 106.713 997.469 113 1030.5 113L1030.52 113.037C1075.19 114.367 1111 151.002 1111 196C1111 240.998 1075.19 277.633 1030.52 278.963L1030.5 279C997.478 279 964.766 285.379 934.163 297.785L901.526 311.016C892.522 314.667 883.807 318.994 875.456 323.962C845.704 341.659 811.728 351 777.11 351H395V222H379.291C366.573 317.957 284.433 392 185 392H0V6.10352e-05Z" fill="#2D2F3A"/>
<path fill-rule="evenodd" clip-rule="evenodd" d="M433 65.0001H508V78.0001H433L433 137L470 137V150L433 150H420L420 137V78.0001V65.0001H433Z" fill="#343744"/>
<path fill-rule="evenodd" clip-rule="evenodd" d="M526 65.0001H601H614V78.0001V105H601L601 78.0001H526V65.0001Z" fill="#343744"/>
<path fill-rule="evenodd" clip-rule="evenodd" d="M632 65.0001L707 65.0001L720 65.0001L720 78.0001L720 105L707 105L707 78.0001L632 78.0001V65.0001Z" fill="#343744"/>
<path fill-rule="evenodd" clip-rule="evenodd" d="M720 327L645 327L632 327L632 314L632 287L645 287L645 314L720 314L720 327Z" fill="#343744"/>
<path fill-rule="evenodd" clip-rule="evenodd" d="M614 327L539 327L526 327L526 314L526 287L539 287L539 314L614 314L614 327Z" fill="#343744"/>
<path fill-rule="evenodd" clip-rule="evenodd" d="M433 327H508L508 314H433L433 255L470 255V242L433 242L420 242V255V314V327H433Z" fill="#343744"/>
<rect x="544" y="231" width="70" height="243" rx="35" transform="rotate(-90 544 231)" fill="#343744"/>
<rect y="6.10352e-05" width="130" height="392" fill="#343744"/>
<rect x="72" y="6.10352e-05" width="8" height="392" fill="#2D2F3A"/>
<path d="M848 299L848 92" stroke="#343744" stroke-width="2"/>
<path d="M856 296L856 96" stroke="#343744" stroke-width="2"/>
<path d="M864 296L864 100" stroke="#343744" stroke-width="2"/>
<path d="M872 293L872 103" stroke="#343744" stroke-width="2"/>
<path d="M880 290L880 106" stroke="#343744" stroke-width="2"/>
<path d="M888 288L888 108" stroke="#343744" stroke-width="2"/>
<path d="M896 287L896 109" stroke="#343744" stroke-width="2"/>
<path d="M904 286L904 110" stroke="#343744" stroke-width="2"/>
<path d="M912 285L912 111" stroke="#343744" stroke-width="2"/>
<path d="M920 284L920 112" stroke="#343744" stroke-width="2"/>
<path d="M928 283L928 113" stroke="#343744" stroke-width="2"/>
<path d="M936 282L936 114" stroke="#343744" stroke-width="2"/>
<path d="M944 281L944 115" stroke="#343744" stroke-width="2"/>
<path d="M952 281L952 115" stroke="#343744" stroke-width="2"/>
<path d="M960 281L960 115" stroke="#343744" stroke-width="2"/>
<path d="M840 301L840 90" stroke="#343744" stroke-width="2"/>
<path d="M832 305L832 86" stroke="#343744" stroke-width="2"/>
<path d="M824 310L824 81" stroke="#343744" stroke-width="2"/>
<path d="M816 315L816 76" stroke="#343744" stroke-width="2"/>
<path d="M808 320L808 71" stroke="#343744" stroke-width="2"/>
<path d="M138 273H176" stroke="#343744" stroke-width="2"/>
<path d="M138 279H176" stroke="#343744" stroke-width="2"/>
<path d="M138 285H176" stroke="#343744" stroke-width="2"/>
<path d="M138 291H176" stroke="#343744" stroke-width="2"/>
<path d="M138 297H176" stroke="#343744" stroke-width="2"/>
<path d="M138 303H176" stroke="#343744" stroke-width="2"/>
<path d="M138 309H176" stroke="#343744" stroke-width="2"/>
<path d="M138 315H176" stroke="#343744" stroke-width="2"/>
<path d="M138 321H176" stroke="#343744" stroke-width="2"/>
<path d="M138 327H176" stroke="#343744" stroke-width="2"/>
<path d="M138 333H176" stroke="#343744" stroke-width="2"/>
<path d="M138 339H176" stroke="#343744" stroke-width="2"/>
<path d="M138 345H176" stroke="#343744" stroke-width="2"/>
<path d="M138 351H176" stroke="#343744" stroke-width="2"/>
<path d="M138 357H176" stroke="#343744" stroke-width="2"/>
<path d="M138 363H176" stroke="#343744" stroke-width="2"/>
<path d="M138 369H176" stroke="#343744" stroke-width="2"/>
<path d="M138 375H176" stroke="#343744" stroke-width="2"/>
<path d="M138 381H176" stroke="#343744" stroke-width="2"/>
<path d="M138 387H176" stroke="#343744" stroke-width="2"/>
<path d="M138 6.00006H176" stroke="#343744" stroke-width="2"/>
<path d="M138 12.0001H176" stroke="#343744" stroke-width="2"/>
<path d="M138 18.0001H176" stroke="#343744" stroke-width="2"/>
<path d="M138 24.0001H176" stroke="#343744" stroke-width="2"/>
<path d="M138 30.0001H176" stroke="#343744" stroke-width="2"/>
<path d="M138 36.0001H176" stroke="#343744" stroke-width="2"/>
<path d="M138 42.0001H176" stroke="#343744" stroke-width="2"/>
<path d="M138 48.0001H176" stroke="#343744" stroke-width="2"/>
<path d="M138 54.0001H176" stroke="#343744" stroke-width="2"/>
<path d="M138 60.0001H176" stroke="#343744" stroke-width="2"/>
<path d="M138 66.0001H176" stroke="#343744" stroke-width="2"/>
<path d="M138 72.0001H176" stroke="#343744" stroke-width="2"/>
<path d="M138 78.0001H176" stroke="#343744" stroke-width="2"/>
<path d="M138 84.0001H176" stroke="#343744" stroke-width="2"/>
<path d="M138 90.0001H176" stroke="#343744" stroke-width="2"/>
<path d="M138 96H176" stroke="#343744" stroke-width="2"/>
<path d="M138 102H176" stroke="#343744" stroke-width="2"/>
<path d="M138 108H176" stroke="#343744" stroke-width="2"/>
<path d="M138 114H176" stroke="#343744" stroke-width="2"/>
<path d="M779 41.0001L821.045 65.6069C864.563 91.076 914.077 104.5 964.5 104.5V104.5L896.138 69.3506C859.903 50.7192 819.745 41.0001 779 41.0001V41.0001Z" fill="#343744"/>
<path d="M779 350.5L821.045 325.893C864.563 300.424 914.077 287 964.5 287V287L896.138 322.149C859.903 340.781 819.745 350.5 779 350.5V350.5Z" fill="#343744"/>
<path fill-rule="evenodd" clip-rule="evenodd" d="M184 391.998C184.333 391.999 184.666 392 185 392C284.778 392 367.143 317.443 379.421 221H355.196C343.09 304.145 271.502 368 185 368C184.666 368 184.333 367.999 184 367.997V391.998ZM184 344.997C184.333 344.999 184.666 345 185 345C258.771 345 320.021 291.388 331.912 221H307.5C295.918 278.056 245.474 321 185 321C184.666 321 184.333 320.999 184 320.996L184 344.997ZM184 71.004V47.0033C184.333 47.0012 184.666 47.0001 185 47.0001C258.071 47.0001 318.857 99.5992 331.56 169H307.076C294.734 112.943 244.765 71.0001 185 71.0001C184.666 71.0001 184.333 71.0014 184 71.004ZM184 295.995C184.333 295.998 184.666 296 185 296C231.596 296 270.748 264.131 281.85 221H256.792C246.454 250.692 218.215 272 185 272C184.666 272 184.333 271.998 184 271.994V295.995ZM184 120.007V96.005C184.333 96.0017 184.666 96.0001 185 96.0001C230.873 96.0001 269.531 126.888 281.312 169H256.064C245.175 140.356 217.465 120 185 120C184.666 120 184.333 120.002 184 120.007ZM184 24.0029V0.0025583C184.333 0.000894113 184.666 6.10352e-05 185 6.10352e-05C284.087 6.10352e-05 366.001 73.5288 379.156 169H354.893C341.938 86.8338 270.807 24.0001 185 24.0001C184.666 24.0001 184.333 24.001 184 24.0029Z" fill="#343744"/>
<circle cx="999" cy="182" r="7" fill="#0AF807" fill-opacity="0.1"/>
<circle cx="999" cy="206" r="7" fill="#1302FD" fill-opacity="0.1"/>
<circle cx="761" cy="196" r="7" fill="#FD0202" fill-opacity="0.1"/>
<circle cx="981" cy="225" r="7" fill="#FD028B" fill-opacity="0.1"/>
<circle cx="959" cy="236" r="7" fill="#FD028B" fill-opacity="0.1"/>
<circle cx="927" cy="243" r="7" fill="#FD028B" fill-opacity="0.1"/>
<circle cx="897" cy="250" r="7" fill="#FD028B" fill-opacity="0.1"/>
<circle cx="864" cy="257" r="7" fill="#FD028B" fill-opacity="0.1"/>
<circle cx="828" cy="267" r="7" fill="#FD028B" fill-opacity="0.1"/>
<circle cx="794" cy="276" r="7" fill="#FD028B" fill-opacity="0.1"/>
<circle cx="760" cy="276" r="7" fill="#FD028B" fill-opacity="0.1"/>
<circle cx="720" cy="267" r="7" fill="#FD028B" fill-opacity="0.1"/>
<circle cx="683" cy="264" r="7" fill="#FD028B" fill-opacity="0.1"/>
<circle cx="636" cy="260" r="7" fill="#FD028B" fill-opacity="0.1"/>
<circle cx="583" cy="257" r="7" fill="#FD028B" fill-opacity="0.1"/>
<circle cx="530" cy="250" r="7" fill="#FD028B" fill-opacity="0.1"/>
<circle cx="492" cy="236" r="7" fill="#FD028B" fill-opacity="0.1"/>
<circle cx="461" cy="218" r="7" fill="#FD028B" fill-opacity="0.1"/>
<circle cx="423" cy="204" r="7" fill="#FD028B" fill-opacity="0.1"/>
<circle cx="386" cy="201" r="7" fill="#FD028B" fill-opacity="0.1"/>
<circle cx="341" cy="199" r="7" fill="#FD028B" fill-opacity="0.1"/>
<circle cx="303" cy="192" r="7" fill="#FD028B" fill-opacity="0.1"/>
<circle cx="265" cy="190" r="7" fill="#FD028B" fill-opacity="0.4"/>
<circle cx="226" cy="169" r="7" fill="#FD028B" fill-opacity="0.6"/>
<circle cx="208" cy="162" r="7" fill="#FD028B" fill-opacity="0.8"/>
<circle cx="967" cy="206" r="7" fill="#1302FD" fill-opacity="0.1"/>
<circle cx="929" cy="199" r="7" fill="#1302FD" fill-opacity="0.1"/>
<circle cx="894" cy="182" r="7" fill="#1302FD" fill-opacity="0.4"/>
<circle cx="801" cy="144" r="7" fill="#1302FD" fill-opacity="0.4"/>
<circle cx="767" cy="140" r="7" fill="#1302FD" fill-opacity="0.1"/>
<circle cx="727" cy="130" r="7" fill="#1302FD" fill-opacity="0.1"/>
<circle cx="687" cy="130" r="7" fill="#1302FD" fill-opacity="0.1"/>
<circle cx="653" cy="133" r="7" fill="#1302FD" fill-opacity="0.1"/>
<circle cx="619" cy="137" r="7" fill="#1302FD" fill-opacity="0.1"/>
<circle cx="579" cy="140" r="7" fill="#1302FD" fill-opacity="0.1"/>
<circle cx="533" cy="147" r="7" fill="#1302FD" fill-opacity="0.1"/>
<circle cx="485" cy="161" r="7" fill="#1302FD" fill-opacity="0.1"/>
<circle cx="437" cy="178" r="7" fill="#1302FD" fill-opacity="0.1"/>
<circle cx="402" cy="183" r="7" fill="#1302FD" fill-opacity="0.1"/>
<circle cx="367" cy="185" r="7" fill="#1302FD" fill-opacity="0.1"/>
<circle cx="333" cy="189" r="7" fill="#1302FD" fill-opacity="0.1"/>
<circle cx="296" cy="185" r="7" fill="#1302FD" fill-opacity="0.1"/>
<circle cx="266" cy="182" r="7" fill="#1302FD" fill-opacity="0.1"/>
<circle cx="235" cy="192" r="7" fill="#1302FD" fill-opacity="0.1"/>
<circle cx="212" cy="211" r="7" fill="#1302FD" fill-opacity="0.1"/>
<circle cx="980" cy="189" r="7" fill="#0AF807" fill-opacity="0.1"/>
<circle cx="945" cy="182" r="7" fill="#0AF807" fill-opacity="0.1"/>
<circle cx="920" cy="168" r="7" fill="#0AF807" fill-opacity="0.4"/>
<circle cx="824" cy="130" r="7" fill="#0AF807" fill-opacity="0.4"/>
<circle cx="794" cy="130" r="7" fill="#0AF807" fill-opacity="0.1"/>
<circle cx="768" cy="137" r="7" fill="#0AF807" fill-opacity="0.1"/>
<circle cx="734" cy="140" r="7" fill="#0AF807" fill-opacity="0.1"/>
<circle cx="706" cy="140" r="7" fill="#0AF807" fill-opacity="0.1"/>
<circle cx="673" cy="133" r="7" fill="#0AF807" fill-opacity="0.1"/>
<circle cx="636" cy="130" r="7" fill="#0AF807" fill-opacity="0.1"/>
<circle cx="597" cy="123" r="7" fill="#0AF807" fill-opacity="0.1"/>
<circle cx="565" cy="123" r="7" fill="#0AF807" fill-opacity="0.1"/>
<circle cx="548" cy="133" r="7" fill="#0AF807" fill-opacity="0.1"/>
<circle cx="526" cy="158" r="7" fill="#0AF807" fill-opacity="0.1"/>
<circle cx="492" cy="172" r="7" fill="#0AF807" fill-opacity="0.1"/>
<circle cx="464" cy="182" r="7" fill="#0AF807" fill-opacity="0.1"/>
<circle cx="433" cy="192" r="7" fill="#0AF807" fill-opacity="0.1"/>
<circle cx="395" cy="196" r="7" fill="#0AF807" fill-opacity="0.1"/>
<circle cx="360" cy="197" r="7" fill="#0AF807" fill-opacity="0.1"/>
<circle cx="326" cy="201" r="7" fill="#0AF807" fill-opacity="0.1"/>
<circle cx="282" cy="201" r="7" fill="#0AF807" fill-opacity="0.1"/>
<circle cx="242" cy="204" r="7" fill="#0AF807" fill-opacity="0.4"/>
<circle cx="203" cy="202" r="7" fill="#0AF807" fill-opacity="0.8"/>
<circle cx="222" cy="203" r="7" fill="#0AF807" fill-opacity="0.6"/>
<circle cx="177" cy="218" r="7" fill="#0AF807" fill-opacity="0.1"/>
<circle cx="170" cy="246" r="7" fill="#0AF807" fill-opacity="0.1"/>
<circle cx="164" cy="280" r="7" fill="#0AF807" fill-opacity="0.1"/>
<path d="M846 138L838 150" stroke="#EFFFAD" stroke-width="2"/>
<path d="M867.5 138.5L852 155.5" stroke="#EFFFAD" stroke-width="2"/>
<path d="M196.5 163L191 197" stroke="#EFFFAD" stroke-width="2"/>
<path d="M175 167.5L179.5 195" stroke="#EFFFAD" stroke-width="2"/>
<path d="M883 147.5L868.5 159" stroke="#EFFFAD" stroke-width="2"/>
<circle cx="864" cy="162" r="7" fill="#1302FD"/>
<circle cx="835" cy="155" r="7" fill="#1302FD"/>
<circle cx="850" cy="158" r="7" fill="#1302FD"/>
<circle cx="887" cy="144" r="7" fill="#0AF807"/>
<circle cx="849" cy="133" r="7" fill="#0AF807"/>
<circle cx="868" cy="137" r="7" fill="#0AF807"/>
<circle cx="197" cy="158" r="7" fill="#FD028B"/>
<circle cx="174" cy="163" r="7" fill="#FD028B"/>
<circle cx="191" cy="201" r="7" fill="#0AF807"/>
<circle cx="180" cy="200" r="7" fill="#0AF807"/>
</svg>
