<svg width="392" height="1111" viewBox="0 0 392 1111" fill="none" xmlns="http://www.w3.org/2000/svg">
<path fill-rule="evenodd" clip-rule="evenodd" d="M392 3.05176e-05L392 185C392 284.433 317.957 366.573 222 379.291L222 395L351 395L351 776.728C351 811.583 341.505 845.78 323.535 875.646C318.187 884.534 313.569 893.841 309.726 903.476L297.526 934.059C285.287 964.739 279 997.469 279 1030.5L278.963 1030.52C277.633 1075.19 240.998 1111 196 1111C151.002 1111 114.367 1075.19 113.037 1030.52L113 1030.5C113 997.478 106.621 964.766 94.2147 934.163L80.9835 901.526C77.3331 892.522 73.0057 883.807 68.0384 875.456C50.3411 845.704 41 811.728 41 777.11L41 395L170 395L170 379.291C74.0426 366.573 -1.2433e-05 284.433 -8.08661e-06 185L0 1.33827e-05L392 3.05176e-05Z" fill="#2D2F3A"/>
<path fill-rule="evenodd" clip-rule="evenodd" d="M327 433L327 508L314 508L314 433L255 433L255 470L242 470L242 433L242 420L255 420L314 420L327 420L327 433Z" fill="#343744"/>
<path fill-rule="evenodd" clip-rule="evenodd" d="M327 526L327 601L327 614L314 614L287 614L287 601L314 601L314 526L327 526Z" fill="#343744"/>
<path fill-rule="evenodd" clip-rule="evenodd" d="M327 632L327 707L327 720L314 720L287 720L287 707L314 707L314 632L327 632Z" fill="#343744"/>
<path fill-rule="evenodd" clip-rule="evenodd" d="M65 720L65 645L65 632L78 632L105 632L105 645L78 645L78 720L65 720Z" fill="#343744"/>
<path fill-rule="evenodd" clip-rule="evenodd" d="M65 614L65 539L65 526L78 526L105 526L105 539L78 539L78 614L65 614Z" fill="#343744"/>
<path fill-rule="evenodd" clip-rule="evenodd" d="M65 433L65 508L78 508L78 433L137 433L137 470L150 470L150 433L150 420L137 420L78 420L65 420L65 433Z" fill="#343744"/>
<rect x="161" y="544" width="70" height="243" rx="35" fill="#343744"/>
<rect x="392" y="3.05176e-05" width="130" height="392" transform="rotate(90 392 3.05176e-05)" fill="#343744"/>
<rect x="392" y="72" width="8" height="392" transform="rotate(90 392 72)" fill="#2D2F3A"/>
<path d="M93 848L300 848" stroke="#343744" stroke-width="2"/>
<path d="M96 856L296 856" stroke="#343744" stroke-width="2"/>
<path d="M96 864L292 864" stroke="#343744" stroke-width="2"/>
<path d="M99 872L289 872" stroke="#343744" stroke-width="2"/>
<path d="M102 880L286 880" stroke="#343744" stroke-width="2"/>
<path d="M104 888L284 888" stroke="#343744" stroke-width="2"/>
<path d="M105 896L283 896" stroke="#343744" stroke-width="2"/>
<path d="M106 904L282 904" stroke="#343744" stroke-width="2"/>
<path d="M107 912L281 912" stroke="#343744" stroke-width="2"/>
<path d="M108 920L280 920" stroke="#343744" stroke-width="2"/>
<path d="M109 928L279 928" stroke="#343744" stroke-width="2"/>
<path d="M110 936L278 936" stroke="#343744" stroke-width="2"/>
<path d="M111 944L277 944" stroke="#343744" stroke-width="2"/>
<path d="M111 952L277 952" stroke="#343744" stroke-width="2"/>
<path d="M111 960L277 960" stroke="#343744" stroke-width="2"/>
<path d="M91 840L302 840" stroke="#343744" stroke-width="2"/>
<path d="M87 832L306 832" stroke="#343744" stroke-width="2"/>
<path d="M82 824L311 824" stroke="#343744" stroke-width="2"/>
<path d="M77 816L316 816" stroke="#343744" stroke-width="2"/>
<path d="M72 808L321 808" stroke="#343744" stroke-width="2"/>
<path d="M119 138L119 176" stroke="#343744" stroke-width="2"/>
<path d="M113 138L113 176" stroke="#343744" stroke-width="2"/>
<path d="M107 138L107 176" stroke="#343744" stroke-width="2"/>
<path d="M101 138L101 176" stroke="#343744" stroke-width="2"/>
<path d="M95 138L95 176" stroke="#343744" stroke-width="2"/>
<path d="M89 138L89 176" stroke="#343744" stroke-width="2"/>
<path d="M83 138L83 176" stroke="#343744" stroke-width="2"/>
<path d="M77 138L77 176" stroke="#343744" stroke-width="2"/>
<path d="M71 138L71 176" stroke="#343744" stroke-width="2"/>
<path d="M65 138L65 176" stroke="#343744" stroke-width="2"/>
<path d="M59 138L59 176" stroke="#343744" stroke-width="2"/>
<path d="M53 138L53 176" stroke="#343744" stroke-width="2"/>
<path d="M47 138L47 176" stroke="#343744" stroke-width="2"/>
<path d="M41 138L41 176" stroke="#343744" stroke-width="2"/>
<path d="M35 138L35 176" stroke="#343744" stroke-width="2"/>
<path d="M29 138L29 176" stroke="#343744" stroke-width="2"/>
<path d="M23 138L23 176" stroke="#343744" stroke-width="2"/>
<path d="M17 138L17 176" stroke="#343744" stroke-width="2"/>
<path d="M11 138L11 176" stroke="#343744" stroke-width="2"/>
<path d="M5 138L5 176" stroke="#343744" stroke-width="2"/>
<path d="M386 138L386 176" stroke="#343744" stroke-width="2"/>
<path d="M380 138L380 176" stroke="#343744" stroke-width="2"/>
<path d="M374 138L374 176" stroke="#343744" stroke-width="2"/>
<path d="M368 138L368 176" stroke="#343744" stroke-width="2"/>
<path d="M362 138L362 176" stroke="#343744" stroke-width="2"/>
<path d="M356 138L356 176" stroke="#343744" stroke-width="2"/>
<path d="M350 138L350 176" stroke="#343744" stroke-width="2"/>
<path d="M344 138L344 176" stroke="#343744" stroke-width="2"/>
<path d="M338 138L338 176" stroke="#343744" stroke-width="2"/>
<path d="M332 138L332 176" stroke="#343744" stroke-width="2"/>
<path d="M326 138L326 176" stroke="#343744" stroke-width="2"/>
<path d="M320 138L320 176" stroke="#343744" stroke-width="2"/>
<path d="M314 138L314 176" stroke="#343744" stroke-width="2"/>
<path d="M308 138L308 176" stroke="#343744" stroke-width="2"/>
<path d="M302 138L302 176" stroke="#343744" stroke-width="2"/>
<path d="M296 138L296 176" stroke="#343744" stroke-width="2"/>
<path d="M290 138L290 176" stroke="#343744" stroke-width="2"/>
<path d="M284 138L284 176" stroke="#343744" stroke-width="2"/>
<path d="M278 138L278 176" stroke="#343744" stroke-width="2"/>
<path d="M351 779L326.393 821.045C300.924 864.563 287.5 914.077 287.5 964.5V964.5L322.649 896.138C341.281 859.903 351 819.745 351 779V779Z" fill="#343744"/>
<path d="M41.5 779L66.1068 821.045C91.5759 864.563 105 914.077 105 964.5V964.5L69.8505 896.138C51.2191 859.903 41.5 819.745 41.5 779V779Z" fill="#343744"/>
<path fill-rule="evenodd" clip-rule="evenodd" d="M0.00250244 184C0.00082396 184.333 -2.91324e-08 184.666 -4.37114e-08 185C-4.40516e-06 284.778 74.5575 367.143 171 379.421L171 355.196C87.8555 343.089 24 271.502 24 185C24 184.666 24.0009 184.333 24.0028 184L0.00250244 184ZM47.0033 184C47.0011 184.333 47 184.666 47 185C47 258.771 100.612 320.021 171 331.912L171 307.5C113.944 295.918 71 245.474 71 185C71 184.666 71.0013 184.333 71.0039 184L47.0033 184ZM320.996 184L344.997 184C344.999 184.333 345 184.666 345 185C345 258.071 292.401 318.857 223 331.56L223 307.076C279.057 294.734 321 244.765 321 185C321 184.666 320.999 184.333 320.996 184ZM96.0049 184C96.0016 184.333 96 184.666 96 185C96 231.596 127.869 270.748 171 281.85L171 256.792C141.308 246.454 120 218.215 120 185C120 184.666 120.002 184.333 120.006 184L96.0049 184ZM271.994 184L295.995 184C295.998 184.333 296 184.666 296 185C296 230.873 265.112 269.531 223 281.312L223 256.064C251.644 245.175 272 217.465 272 185C272 184.666 271.998 184.333 271.994 184ZM367.997 184L391.998 184C391.999 184.333 392 184.666 392 185C392 284.087 318.471 366.001 223 379.156L223 354.893C305.166 341.938 368 270.807 368 185C368 184.666 367.999 184.333 367.997 184Z" fill="#343744"/>
<rect x="153" y="1" width="178" height="201" rx="12" fill="#6BDD35" fill-opacity="0.1" stroke="#6BDD35" stroke-width="2" stroke-dasharray="6 6"/>
<rect x="261" y="218" width="70" height="201" rx="12" fill="#35DDDD" fill-opacity="0.1" stroke="#35DDDD" stroke-width="2" stroke-dasharray="6 6"/>
<rect x="79" y="535" width="67" height="106" rx="12" fill="#C635DD" fill-opacity="0.1" stroke="#C635DD" stroke-width="2" stroke-dasharray="6 6"/>
<rect x="128" y="912" width="152" height="198" rx="12" fill="#DDCD35" fill-opacity="0.1" stroke="#DDCD35" stroke-width="2" stroke-dasharray="6 6"/>
</svg>
